# xmcd
#
# Track frame offsets:
#	150
#	12925
#	28486
#	40868
#	57453
#	71947
#	82053
#	94258
#	107224
#	119012
#	130487
#	141999
#	151876
#	165098
#	180251
#	192924
#	206847
#	213837
#	224673
#	240067
#	256735
#	268748
#	279262
#	291898
#
# Disc length: 4077 seconds
#
# Revision: 1
# Processed by: cddbd v1.5.1PL2 Copyright (c) Steve Scherf et al.
# Submitted via: audiograbber 1.83.01
#
DISCID=6d0feb18
DTITLE=Rusty Lawrence - Live @ Grady's Bar-B-Q July 2004
DYEAR=2004
DGENRE=Country
TTITLE0=Amanda
TTITLE1=Amarillo by Morning
TTITLE2=Blue Eyes Cryin' in the Rain
TTITLE3=Me and Bobby McGee
TTITLE4=Country Roads
TTITLE5=All I have to do is Dream
TTITLE6=Four Walls to Hear Me
TTITLE7=Freight Train
TTITLE8=I'll have to say I love you in a song
TTITLE9=I Can't Help it if I'm still in love with you
TTITLE10=Kingston Town
TTITLE11=King of the Road
TTITLE12=Make the World Go Away
TTITLE13=Pass me By
TTITLE14=Remember Me
TTITLE15=Rhinstone Cowboy
TTITLE16=Ride the Train
TTITLE17=Rose of San Antone
TTITLE18=Texas is Calling Me Home
TTITLE19=Spanish Eyes
TTITLE20=Tennessee Waltz
TTITLE21=Welcome to My World
TTITLE22=Wichita Lineman
TTITLE23=You Never Can Tell
EXTD=
EXTT0=
EXTT1=
EXTT2=
EXTT3=
EXTT4=
EXTT5=
EXTT6=
EXTT7=
EXTT8=
EXTT9=
EXTT10=
EXTT11=
EXTT12=
EXTT13=
EXTT14=
EXTT15=
EXTT16=
EXTT17=
EXTT18=
EXTT19=
EXTT20=
EXTT21=
EXTT22=
EXTT23=
PLAYORDER=
